<svg width="22" height="22" viewBox="0 0 22 22" fill="none" xmlns="http://www.w3.org/2000/svg">
<g clip-path="url(#clip0_244_5100)">
<path d="M11 6.29199C11.5752 6.29217 12.041 6.7588 12.041 7.33398C12.0408 7.90902 11.5751 8.37482 11 8.375C10.4248 8.375 9.95818 7.90913 9.95801 7.33398C9.95801 6.75869 10.4247 6.29199 11 6.29199Z" fill="black" stroke="black" stroke-width="0.25"/>
<path d="M11 9.27051C11.4487 9.27051 11.8125 9.63429 11.8125 10.083V15.583C11.8125 16.0317 11.4487 16.3955 11 16.3955C10.5513 16.3955 10.1875 16.0317 10.1875 15.583V10.083C10.1875 9.63429 10.5513 9.27051 11 9.27051Z" fill="black" stroke="black" stroke-width="0.25"/>
<path d="M11.0527 1.02051C13.165 1.0205 14.8328 1.02005 16.1367 1.19531C17.4748 1.37521 18.5511 1.75336 19.3984 2.60059C20.2458 3.44794 20.6237 4.52414 20.8037 5.8623C20.979 7.16638 20.9785 8.83464 20.9785 10.9473V11.0527C20.9785 13.165 20.9789 14.8328 20.8037 16.1367C20.6237 17.4748 20.2458 18.5511 19.3984 19.3984C18.5511 20.2458 17.4748 20.6237 16.1367 20.8037C14.8328 20.9789 13.165 20.9785 11.0527 20.9785H10.9473C8.83464 20.9785 7.16638 20.979 5.8623 20.8037C4.52414 20.6237 3.44794 20.2458 2.60059 19.3984C1.75336 18.5511 1.37521 17.4748 1.19531 16.1367C1.02005 14.8328 1.0205 13.165 1.02051 11.0527V10.9473C1.0205 8.83466 1.01999 7.16637 1.19531 5.8623C1.37523 4.52413 1.75323 3.44794 2.60059 2.60059C3.44794 1.75323 4.52413 1.37523 5.8623 1.19531C7.16637 1.01999 8.83468 1.0205 10.9473 1.02051H11.0527ZM11 2.64551C8.81661 2.64551 7.26043 2.64688 6.0791 2.80566C4.92113 2.96135 4.2451 3.25489 3.75 3.75C3.25489 4.2451 2.96135 4.92113 2.80566 6.0791C2.64688 7.26043 2.64551 8.81661 2.64551 11C2.64551 13.1834 2.64684 14.7396 2.80566 15.9209C2.96134 17.0786 3.25502 17.7539 3.75 18.249C4.2451 18.7442 4.92114 19.0377 6.0791 19.1934C7.26043 19.3522 8.81658 19.3535 11 19.3535C13.1834 19.3535 14.7396 19.3522 15.9209 19.1934C17.0787 19.0377 17.7539 18.7441 18.249 18.249C18.7441 17.7539 19.0377 17.0787 19.1934 15.9209C19.3522 14.7396 19.3535 13.1834 19.3535 11C19.3535 8.81658 19.3522 7.26043 19.1934 6.0791C19.0377 4.92114 18.7442 4.2451 18.249 3.75C17.7539 3.25502 17.0786 2.96134 15.9209 2.80566C14.7396 2.64684 13.1834 2.64551 11 2.64551Z" fill="black" stroke="black" stroke-width="0.25"/>
</g>
<defs>
<clipPath id="clip0_244_5100">
<rect width="22" height="22" fill="white"/>
</clipPath>
</defs>
</svg>
