<svg width="20" height="20" viewBox="0 0 20 20" fill="none" xmlns="http://www.w3.org/2000/svg">
<g clip-path="url(#clip0_244_5864)">
<path d="M15.2969 9.26465C15.5803 9.20364 15.8599 9.38451 15.9209 9.66797L17.127 15.2744C17.188 15.5578 17.008 15.8374 16.7246 15.8984C16.4412 15.9595 16.1616 15.7786 16.1006 15.4951L14.8945 9.88867C14.8335 9.60521 15.0134 9.32566 15.2969 9.26465ZM4.76465 9.26465C5.04831 9.32466 5.22994 9.60303 5.16992 9.88672L3.98535 15.4893C3.92534 15.7729 3.64599 15.9545 3.3623 15.8945C3.07897 15.8344 2.89825 15.5559 2.95801 15.2725L4.14258 9.66992C4.20256 9.38637 4.48107 9.20484 4.76465 9.26465Z" fill="black" stroke="black" stroke-width="0.25"/>
<path d="M3.01855 15.1152C3.16548 14.8655 3.48745 14.7821 3.7373 14.9287C5.63373 16.0443 7.79567 16.6415 10.0459 16.6416C12.2933 16.6416 14.4528 16.0465 16.3477 14.9336C16.5977 14.7867 16.9195 14.8701 17.0664 15.1201C17.2132 15.3701 17.1299 15.692 16.8799 15.8389C14.8247 17.0461 12.4815 17.6914 10.0459 17.6914C7.60735 17.6913 5.26194 17.044 3.20508 15.834C2.95535 15.6869 2.87162 15.3651 3.01855 15.1152ZM10.0664 3.0752C10.3312 3.07576 10.6015 3.11981 10.8213 3.21094L19.5869 6.8418C19.9387 6.98745 20.1395 7.26047 20.1396 7.55664C20.1397 7.85289 19.9388 8.1258 19.5869 8.27148L10.8213 11.9033C10.6014 11.9944 10.3313 12.0375 10.0664 12.0381C9.86786 12.0385 9.66648 12.0148 9.48535 11.9648L9.31152 11.9062L0.429688 8.27051C0.0766912 8.12579 -0.125028 7.85291 -0.125 7.55664C-0.124948 7.26049 0.0768604 6.98832 0.429688 6.84375L9.31152 3.20703C9.53169 3.11693 9.80168 3.07466 10.0664 3.0752ZM10.0645 4.125C9.92363 4.1247 9.7919 4.14477 9.70898 4.17871L1.45898 7.55664L9.70996 10.9346C9.79273 10.9684 9.92381 10.9886 10.0645 10.9883C10.2052 10.988 10.3361 10.9669 10.4189 10.9326L18.5693 7.55664L10.4189 4.18066C10.3363 4.1464 10.2053 4.12531 10.0645 4.125Z" fill="black" stroke="black" stroke-width="0.25"/>
<path d="M19.6182 6.95703C19.9079 6.95724 20.1426 7.1926 20.1426 7.48242V13.2676C20.1426 13.5574 19.9079 13.7928 19.6182 13.793C19.3282 13.793 19.0928 13.5575 19.0928 13.2676V7.48242L19.1035 7.37598C19.1526 7.13687 19.3645 6.95703 19.6182 6.95703Z" fill="black" stroke="black" stroke-width="0.25"/>
</g>
<defs>
<clipPath id="clip0_244_5864">
<rect width="20" height="20" fill="white"/>
</clipPath>
</defs>
</svg>
