<svg width="22" height="22" viewBox="0 0 22 22" fill="none" xmlns="http://www.w3.org/2000/svg">
<g clip-path="url(#clip0_244_5130)">
<path d="M19.6334 20.4028C19.6334 20.6984 19.3938 20.938 19.0982 20.938H16.7746C16.479 20.938 16.2394 20.6984 16.2394 20.4028C16.2394 20.1072 16.479 19.8676 16.7746 19.8676H19.0982C19.3938 19.8676 19.6334 20.1072 19.6334 20.4028ZM9.13852 2.92403C9.13852 1.89755 9.97357 1.0625 11 1.0625C12.0264 1.0625 12.8615 1.89755 12.8615 2.92403C12.8615 3.95051 12.0264 4.78556 11 4.78556C9.97357 4.78556 9.13852 3.95051 9.13852 2.92403ZM10.2089 2.92403C10.2089 3.36023 10.5638 3.71514 11 3.71514C11.4362 3.71514 11.791 3.36023 11.791 2.92403C11.791 2.48783 11.4362 2.13293 11 2.13293C10.5638 2.13293 10.2089 2.48777 10.2089 2.92403ZM7.25962 10.2215C7.53121 10.3386 7.84598 10.2136 7.96313 9.94228L8.77897 8.05262C9.22213 7.02626 9.70894 6.60767 10.4591 6.60767H11.5411C12.2912 6.60767 12.778 7.02632 13.2212 8.05262L14.037 9.94234C14.1243 10.1446 14.3215 10.2656 14.5287 10.2656C14.5994 10.2656 14.6714 10.2514 14.7406 10.2215C15.0119 10.1044 15.137 9.78939 15.0198 9.51804L14.204 7.62832C13.8163 6.73065 13.1185 5.53724 11.5411 5.53724H10.4591C8.88173 5.53724 8.18394 6.73065 7.79632 7.62832L6.98048 9.51804C6.86321 9.78933 6.98821 10.1043 7.25962 10.2215ZM21.956 20.1907L21.1403 18.3009C20.7525 17.4032 20.0548 16.2099 18.4776 16.2099H17.3955C15.8182 16.2099 15.1203 17.4032 14.7326 18.301L13.9168 20.1907C13.7996 20.4621 13.9248 20.7771 14.1961 20.8942C14.2652 20.924 14.3372 20.9382 14.408 20.9382C14.6151 20.9382 14.8123 20.8172 14.8996 20.6149L15.7153 18.7253C16.1586 17.699 16.6455 17.2803 17.3955 17.2803H18.4777C19.2276 17.2803 19.7144 17.699 20.1576 18.7252L20.9734 20.6149C21.0905 20.8863 21.4051 21.0114 21.6769 20.8942C21.9482 20.7771 22.0732 20.4621 21.956 20.1907ZM16.0748 13.5967C16.0748 12.5703 16.91 11.7352 17.9365 11.7352C18.9629 11.7352 19.7979 12.5703 19.7979 13.5967C19.7979 14.6232 18.9629 15.4583 17.9365 15.4583C16.91 15.4583 16.0748 14.6232 16.0748 13.5967ZM17.1452 13.5967C17.1452 14.0329 17.5002 14.3878 17.9365 14.3878C18.3727 14.3878 18.7275 14.0329 18.7275 13.5967C18.7275 13.1605 18.3727 12.8057 17.9365 12.8057C17.5002 12.8057 17.1452 13.1605 17.1452 13.5967ZM7.26747 18.301C6.87998 17.4033 6.18236 16.2099 4.60479 16.2099H3.52253C1.94525 16.2099 1.24745 17.4032 0.859781 18.301L0.043997 20.1907C-0.0732146 20.4621 0.0518468 20.7771 0.3232 20.8942C0.594791 21.0113 0.909615 20.8863 1.02671 20.615L1.84249 18.7253C2.28571 17.699 2.77251 17.2803 3.52253 17.2803H4.60479C5.35498 17.2803 5.84172 17.699 6.28476 18.7252L7.10049 20.615C7.18778 20.8172 7.38492 20.9382 7.59211 20.9382C7.66288 20.9382 7.73483 20.9241 7.80393 20.8943C8.07529 20.7771 8.20041 20.4621 8.0832 20.1908L7.26747 18.301ZM5.22563 19.8676H2.9018C2.60618 19.8676 2.36658 20.1072 2.36658 20.4028C2.36658 20.6984 2.60618 20.938 2.9018 20.938H5.22557C5.52119 20.938 5.76079 20.6984 5.76079 20.4028C5.76079 20.1072 5.52119 19.8676 5.22563 19.8676ZM11.6976 19.8676H10.3024C10.0068 19.8676 9.76721 20.1072 9.76721 20.4028C9.76721 20.6984 10.0068 20.938 10.3024 20.938H11.6976C11.9932 20.938 12.2328 20.6984 12.2328 20.4028C12.2328 20.1072 11.9932 19.8676 11.6976 19.8676ZM2.20215 13.5967C2.20215 12.5703 3.03721 11.7352 4.06363 11.7352C5.09011 11.7352 5.92522 12.5703 5.92522 13.5967C5.92522 14.6232 5.09011 15.4583 4.06363 15.4583C3.03721 15.4583 2.20215 14.6232 2.20215 13.5967ZM3.27258 13.5967C3.27258 14.0329 3.62743 14.3878 4.06363 14.3878C4.49988 14.3878 4.85479 14.0329 4.85479 13.5967C4.85479 13.1605 4.49988 12.8057 4.06363 12.8057C3.62743 12.8057 3.27258 13.1605 3.27258 13.5967ZM12.1619 10.2653C12.4575 10.2653 12.6971 10.0257 12.6971 9.73004C12.6971 9.43443 12.4575 9.19483 12.1619 9.19483H9.8381C9.54249 9.19483 9.30289 9.43443 9.30289 9.73004C9.30289 10.0257 9.54249 10.2653 9.8381 10.2653H12.1619ZM9.13852 13.5967C9.13852 12.5703 9.97357 11.7352 11 11.7352C12.0264 11.7352 12.8615 12.5703 12.8615 13.5967C12.8615 14.6232 12.0264 15.4583 11 15.4583C9.97357 15.4583 9.13852 14.6232 9.13852 13.5967ZM10.2089 13.5967C10.2089 14.0329 10.5638 14.3878 11 14.3878C11.4362 14.3878 11.791 14.0329 11.791 13.5967C11.791 13.1605 11.4362 12.8057 11 12.8057C10.5638 12.8057 10.2089 13.1605 10.2089 13.5967ZM13.173 16.7881C12.717 16.4044 12.168 16.2099 11.5411 16.2099H10.4591C9.83198 16.2099 9.28291 16.4044 8.8272 16.7882C8.60105 16.9786 8.57208 17.3162 8.76244 17.5423C8.86829 17.668 9.0197 17.7328 9.17218 17.7328C9.29385 17.7328 9.41623 17.6916 9.51662 17.6071C9.77768 17.3873 10.086 17.2804 10.4591 17.2804H11.5411C11.9141 17.2804 12.2225 17.3873 12.4838 17.6072C12.7102 17.7975 13.0477 17.7684 13.238 17.5423C13.4282 17.316 13.3991 16.9784 13.173 16.7881Z" fill="black"/>
</g>
<defs>
<clipPath id="clip0_244_5130">
<rect width="22" height="22" fill="white"/>
</clipPath>
</defs>
</svg>
