<svg width="22" height="22" viewBox="0 0 22 22" fill="none" xmlns="http://www.w3.org/2000/svg">
<path fill-rule="evenodd" clip-rule="evenodd" d="M5.49967 1.83301C3.47463 1.83301 1.83301 3.47463 1.83301 5.49967V16.4997C1.83301 18.5247 3.47463 20.1663 5.49967 20.1663H16.4997C18.5247 20.1663 20.1663 18.5247 20.1663 16.4997V5.49967C20.1663 3.47463 18.5247 1.83301 16.4997 1.83301H5.49967ZM3.66634 5.49967C3.66634 4.48715 4.48715 3.66634 5.49967 3.66634H16.4997C17.5122 3.66634 18.333 4.48715 18.333 5.49967V16.4997C18.333 17.5122 17.5122 18.333 16.4997 18.333H5.49967C4.48715 18.333 3.66634 17.5122 3.66634 16.4997V5.49967ZM8.24967 10.083C8.24967 9.57673 7.83926 9.16634 7.33301 9.16634C6.82675 9.16634 6.41634 9.57673 6.41634 10.083V15.583C6.41634 16.0893 6.82675 16.4997 7.33301 16.4997C7.83926 16.4997 8.24967 16.0893 8.24967 15.583V10.083ZM8.70801 6.87467C8.70801 7.63407 8.0924 8.24967 7.33301 8.24967C6.57361 8.24967 5.95801 7.63407 5.95801 6.87467C5.95801 6.11528 6.57361 5.49967 7.33301 5.49967C8.0924 5.49967 8.70801 6.11528 8.70801 6.87467ZM10.9997 9.16634C11.3109 9.16634 11.5859 9.32144 11.7516 9.55858C12.2215 9.30402 12.7446 9.16634 13.2913 9.16634C15.2708 9.16634 16.4997 10.9317 16.4997 12.4401V12.4471V12.454V12.4609V12.4679V12.4749V12.4819V12.4889V12.4959V12.503V12.5101V12.5172V12.5243V12.5314V12.5386V12.5457V12.5529V12.56V12.5673V12.5745V12.5817V12.589V12.5962V12.6035V12.6108V12.618V12.6254V12.6327V12.6401V12.6475V12.6549V12.6622V12.6697V12.6771V12.6845V12.692V12.6994V12.707V12.7144V12.7219V12.7294V12.737V12.7445V12.7521V12.7597V12.7673V12.7748V12.7824V12.7901V12.7977V12.8053V12.813V12.8207V12.8283V12.836V12.8437V12.8514V12.8592V12.8669V12.8747V12.8824V12.8902V12.898V12.9058V12.9136V12.9214V12.9292V12.937V12.9448V12.9527V12.9606V12.9685V12.9763V12.9843V12.9921V13V13.0079V13.0159V13.0238V13.0317V13.0396V13.0476V13.0556V13.0635V13.0715V13.0795V13.0875V13.0955V13.1035V13.1116V13.1196V13.1276V13.1356V13.1437V13.1517V13.1598V13.1679V13.1759V13.184V13.1921V13.2001V13.2082V13.2164V13.2244V13.2326V13.2406V13.2488V13.2569V13.265V13.2732V13.2813V13.2894V13.2976V13.3057V13.3139V13.322V13.3302V13.3384V13.3465V13.3548V13.3629V13.3711V13.3792V13.3875V13.3957V13.4038V13.4121V13.4202V13.4285V13.4366V13.4448V13.453V13.4613V13.4694V13.4777V13.4859V13.4941V13.5024V13.5105V13.5188V13.5269V13.5352V13.5434V13.5516V13.5598V13.5681V13.5762V13.5845V13.5927V13.601V13.6091V13.6174V13.6256V13.6338V13.6421V13.6503V13.6585V13.6667V13.6749V13.6831V13.6913V13.6995V13.7078V13.7159V13.7242V13.7323V13.7405V13.7488V13.7569V13.7652V13.7733V13.7815V13.7896V13.7979V13.806V13.8142V13.8224V13.8305V13.8387V13.8468V13.855V13.8632V13.8713V13.8795V13.8875V13.8957V13.9039V13.9119V13.9201V13.9281V13.9363V13.9444V13.9525V13.9606V13.9687V13.9767V13.9848V13.9929V14.0009V14.009V14.0171V14.0251V14.0331V14.0412V14.0491V14.0572V14.0652V14.0732V14.0811V14.0891V14.0971V14.1051V14.113V14.121V14.129V14.1369V14.1448V14.1527V14.1606V14.1686V14.1765V14.1844V14.1921V14.2V14.2079V14.2158V14.2236V14.2314V14.2393V14.2471V14.2548V14.2626V14.2704V14.2781V14.2859V14.2936V14.3014V14.3091V14.3168V14.3245V14.3322V14.3399V14.3475V14.3552V14.3628V14.3704V14.378V14.3857V14.3933V14.4009V14.4084V14.416V14.4235V14.431V14.4385V14.4461V14.4536V14.461V14.4685V14.4759V14.4834V14.4908V14.4982V14.5056V14.513V14.5203V14.5276V14.535V14.5423V14.5496V14.5569V14.5641V14.5715V14.5787V14.5859V14.5931V14.6003V14.6075V14.6146V14.6218V14.6289V14.636V14.6431V14.6502V14.6573V14.6643V14.6714V14.6783V14.6854V14.6924V14.6993V14.7062V14.7132V14.7201V14.7269V14.7338V14.7407V14.7476V14.7543V14.7611V14.7679V14.7747V14.7814V14.7882V14.7949V14.8015V14.8081V14.8148V14.8214V14.828V14.8346V14.8412V14.8477V14.8543V14.8608V14.8673V14.8737V14.8801V14.8865V14.8929V14.8994V14.9057V14.912V14.9183V14.9247V14.9309V14.9371V14.9434V14.9496V14.9557V14.9619V14.968V14.9742V14.9803V14.9863V14.9924V14.9984V15.0044V15.0104V15.0163V15.0222V15.0281V15.034V15.0399V15.0457V15.0515V15.0573V15.0631V15.0688V15.0744V15.0801V15.0858V15.0915V15.0971V15.1027V15.1082V15.1138V15.1193V15.1247V15.1302V15.1356V15.141V15.1464V15.1517V15.157V15.1623V15.1676V15.1728V15.178V15.1832V15.1884V15.1935V15.1986V15.2037V15.2087V15.2138V15.2187V15.2238V15.2286V15.2336V15.2384V15.2433V15.2481V15.2529V15.2577V15.2624V15.2671V15.2718V15.2765V15.2811V15.2856V15.2902V15.2947V15.2992V15.3037V15.3081V15.3125V15.3169V15.3212V15.3255V15.3298V15.334V15.3383V15.3425V15.3466V15.3507V15.3548V15.3589V15.3629V15.3669V15.3709V15.3748V15.3787V15.3825V15.3864V15.3902V15.394V15.3977V15.4014V15.4051V15.4087V15.4123V15.4159V15.4194V15.4229V15.4263V15.4297V15.4331V15.4365V15.4398V15.4431V15.4464V15.4496V15.4528V15.456V15.4591V15.4622V15.4652V15.4682V15.4712V15.4741V15.477V15.4799V15.4827V15.4855V15.4882V15.491V15.4936V15.4963V15.4989V15.5015V15.504V15.5065V15.5089V15.5114V15.5138V15.5161V15.5184V15.5207V15.5229V15.5251V15.5273V15.5294V15.5315V15.5335V15.5354V15.5374V15.5394V15.5412V15.543V15.5449V15.5466V15.5484V15.55V15.5517V15.5533V15.5549V15.5563V15.5578V15.5593V15.5606V15.562V15.5633V15.5646V15.5659V15.5671V15.5682V15.5693V15.5704V15.5714V15.5724V15.5733V15.575V15.5766V15.5781V15.5792V15.5803V15.5815V15.5826C16.4997 16.0889 16.0893 16.4997 15.583 16.4997C15.0767 16.4997 14.6663 16.0893 14.6663 15.583V15.5819V15.5808V15.5798V15.5787V15.5773V15.5759V15.5742V15.5724V15.5714V15.5704V15.5693V15.5682V15.5671V15.5659V15.5646V15.5633V15.562V15.5606V15.5593V15.5578V15.5563V15.5549V15.5533V15.5517V15.55V15.5484V15.5466V15.5449V15.543V15.5412V15.5394V15.5374V15.5354V15.5335V15.5315V15.5294V15.5273V15.5251V15.5229V15.5207V15.5184V15.5161V15.5138V15.5114V15.5089V15.5065V15.504V15.5015V15.4989V15.4963V15.4936V15.491V15.4882V15.4855V15.4827V15.4799V15.477V15.4741V15.4712V15.4682V15.4652V15.4622V15.4591V15.456V15.4528V15.4496V15.4464V15.4431V15.4398V15.4365V15.4331V15.4297V15.4263V15.4229V15.4194V15.4159V15.4123V15.4087V15.4051V15.4014V15.3977V15.394V15.3902V15.3864V15.3825V15.3787V15.3748V15.3709V15.3669V15.3629V15.3589V15.3548V15.3507V15.3466V15.3425V15.3383V15.334V15.3298V15.3255V15.3212V15.3169V15.3125V15.3081V15.3037V15.2992V15.2947V15.2902V15.2856V15.2811V15.2765V15.2718V15.2671V15.2624V15.2577V15.2529V15.2481V15.2433V15.2384V15.2336V15.2286V15.2238V15.2187V15.2138V15.2087V15.2037V15.1986V15.1935V15.1884V15.1832V15.178V15.1728V15.1676V15.1623V15.157V15.1517V15.1464V15.141V15.1356V15.1302V15.1247V15.1193V15.1138V15.1082V15.1027V15.0971V15.0915V15.0858V15.0801V15.0744V15.0688V15.0631V15.0573V15.0515V15.0457V15.0399V15.034V15.0281V15.0222V15.0163V15.0104V15.0044V14.9984V14.9924V14.9863V14.9803V14.9742V14.968V14.9619V14.9557V14.9496V14.9434V14.9371V14.9309V14.9247V14.9183V14.912V14.9057V14.8994V14.8929V14.8865V14.8801V14.8737V14.8673V14.8608V14.8543V14.8477V14.8412V14.8346V14.828V14.8214V14.8148V14.8081V14.8015V14.7949V14.7882V14.7814V14.7747V14.7679V14.7611V14.7543V14.7476V14.7407V14.7338V14.7269V14.7201V14.7132V14.7062V14.6993V14.6924V14.6854V14.6783V14.6714V14.6643V14.6573V14.6502V14.6431V14.636V14.6289V14.6218V14.6146V14.6075V14.6003V14.5931V14.5859V14.5787V14.5715V14.5641V14.5569V14.5496V14.5423V14.535V14.5276V14.5203V14.513V14.5056V14.4982V14.4908V14.4834V14.4759V14.4685V14.461V14.4536V14.4461V14.4385V14.431V14.4235V14.416V14.4084V14.4009V14.3933V14.3857V14.378V14.3704V14.3628V14.3552V14.3475V14.3399V14.3322V14.3245V14.3168V14.3091V14.3014V14.2936V14.2859V14.2781V14.2704V14.2626V14.2548V14.2471V14.2393V14.2314V14.2236V14.2158V14.2079V14.2V14.1921V14.1844V14.1765V14.1686V14.1606V14.1527V14.1448V14.1369V14.129V14.121V14.113V14.1051V14.0971V14.0891V14.0811V14.0732V14.0652V14.0572V14.0491V14.0412V14.0331V14.0251V14.0171V14.009V14.0009V13.9929V13.9848V13.9767V13.9687V13.9606V13.9525V13.9444V13.9363V13.9281V13.9201V13.9119V13.9039V13.8957V13.8875V13.8795V13.8713V13.8632V13.855V13.8468V13.8387V13.8305V13.8224V13.8142V13.806V13.7979V13.7896V13.7815V13.7733V13.7652V13.7569V13.7488V13.7405V13.7323V13.7242V13.7159V13.7078V13.6995V13.6913V13.6831V13.6749V13.6667V13.6585V13.6503V13.6421V13.6338V13.6256V13.6174V13.6091V13.601V13.5927V13.5845V13.5762V13.5681V13.5598V13.5516V13.5434V13.5352V13.5269V13.5188V13.5105V13.5024V13.4941V13.4859V13.4777V13.4694V13.4613V13.453V13.4448V13.4366V13.4285V13.4202V13.4121V13.4038V13.3957V13.3875V13.3792V13.3711V13.3629V13.3548V13.3465V13.3384V13.3302V13.322V13.3139V13.3057V13.2976V13.2894V13.2813V13.2732V13.265V13.2569V13.2488V13.2406V13.2326V13.2244V13.2164V13.2082V13.2001V13.1921V13.184V13.1759V13.1679V13.1598V13.1517V13.1437V13.1356V13.1276V13.1196V13.1116V13.1035V13.0955V13.0875V13.0795V13.0715V13.0635V13.0556V13.0476V13.0396V13.0317V13.0238V13.0159V13.0079V13V12.9921V12.9843V12.9763V12.9685V12.9606V12.9527V12.9448V12.937V12.9292V12.9214V12.9136V12.9058V12.898V12.8902V12.8824V12.8747V12.8669V12.8592V12.8514V12.8437V12.836V12.8283V12.8207V12.813V12.8053V12.7977V12.7901V12.7824V12.7748V12.7673V12.7597V12.7521V12.7445V12.737V12.7294V12.7219V12.7144V12.707V12.6994V12.692V12.6845V12.6771V12.6697V12.6622V12.6549V12.6475V12.6401V12.6327V12.6254V12.618V12.6108V12.6035V12.5962V12.589V12.5817V12.5745V12.5673V12.56V12.5529V12.5457V12.5386V12.5314V12.5243V12.5172V12.5101V12.503V12.4959V12.4889V12.4819V12.4749V12.4679V12.4609V12.454V12.4471V12.4401C14.6663 11.7359 14.0619 10.9997 13.2913 10.9997C12.8109 10.9997 12.2806 11.2608 11.9163 11.8825V11.885V11.8944V11.9039V11.9133V11.9228V11.9323V11.9418V11.9514V11.961V11.9705V11.98V11.9897V11.9993V12.0089V12.0185V12.0282V12.0379V12.0476V12.0572V12.0669V12.0767V12.0864V12.0962V12.1059V12.1157V12.1255V12.1352V12.1451V12.1549V12.1648V12.1746V12.1845V12.1944V12.2042V12.2141V12.224V12.2339V12.2439V12.2538V12.2638V12.2737V12.2836V12.2936V12.3036V12.3136V12.3236V12.3336V12.3437V12.3537V12.3638V12.3738V12.3838V12.3939V12.404V12.4141V12.4242V12.4343V12.4444V12.4545V12.4646V12.4748V12.4849V12.495V12.5052V12.5154V12.5256V12.5357V12.5459V12.5561V12.5663V12.5765V12.5867V12.5969V12.6071V12.6173V12.6276V12.6378V12.648V12.6583V12.6686V12.6788V12.689V12.6993V12.7095V12.7198V12.7302V12.7404V12.7507V12.761V12.7712V12.7815V12.7918V12.8021V12.8124V12.8227V12.833V12.8434V12.8536V12.864V12.8743V12.8845V12.8949V12.9052V12.9155V12.9259V12.9361V12.9465V12.9568V12.9671V12.9775V12.9877V12.9981V13.0084V13.0187V13.0291V13.0393V13.0497V13.06V13.0703V13.0806V13.091V13.1012V13.1116V13.1218V13.1322V13.1425V13.1528V13.1631V13.1735V13.1837V13.194V13.2043V13.2146V13.2249V13.2351V13.2454V13.2557V13.2659V13.2762V13.2865V13.2967V13.307V13.3173V13.3275V13.3377V13.348V13.3583V13.3684V13.3787V13.3889V13.3991V13.4093V13.4195V13.4297V13.4398V13.4501V13.4603V13.4704V13.4805V13.4907V13.5009V13.511V13.5211V13.5312V13.5414V13.5515V13.5616V13.5717V13.5817V13.5918V13.6019V13.612V13.622V13.6321V13.6421V13.6521V13.6621V13.6721V13.6821V13.6921V13.7021V13.712V13.722V13.7319V13.7419V13.7518V13.7617V13.7716V13.7815V13.7914V13.8012V13.8111V13.8209V13.8307V13.8405V13.8503V13.8601V13.8699V13.8797V13.8895V13.8992V13.9089V13.9186V13.9283V13.938V13.9478V13.9574V13.967V13.9766V13.9863V13.9959V14.0055V14.015V14.0246V14.0342V14.0437V14.0532V14.0627V14.0722V14.0817V14.0911V14.1006V14.11V14.1194V14.1288V14.1382V14.1475V14.1569V14.1662V14.1755V14.1848V14.1941V14.2033V14.2125V14.2218V14.2309V14.2401V14.2493V14.2584V14.2676V14.2767V14.2857V14.2948V14.3039V14.3129V14.3219V14.3309V14.3399V14.3488V14.3578V14.3667V14.3756V14.3845V14.3933V14.4022V14.411V14.4198V14.4285V14.4373V14.446V14.4547V14.4634V14.472V14.4806V14.4892V14.4979V14.5065V14.515V14.5235V14.532V14.5405V14.5489V14.5573V14.5658V14.5741V14.5826V14.5909V14.5991V14.6075V14.6157V14.624V14.6321V14.6404V14.6486V14.6567V14.6648V14.6728V14.6809V14.689V14.697V14.7049V14.7129V14.7209V14.7288V14.7366V14.7445V14.7523V14.7601V14.7679V14.7757V14.7834V14.7911V14.7987V14.8063V14.8139V14.8215V14.8291V14.8367V14.8441V14.8516V14.859V14.8664V14.8738V14.8811V14.8884V14.8958V14.903V14.9103V14.9174V14.9246V14.9317V14.9389V14.9459V14.953V14.9599V14.967V14.974V14.9808V14.9877V14.9946V15.0015V15.0083V15.0149V15.0217V15.0284V15.0351V15.0417V15.0483V15.0549V15.0614V15.0679V15.0743V15.0809V15.0872V15.0936V15.0999V15.1062V15.1125V15.1187V15.1249V15.1311V15.1372V15.1433V15.1493V15.1554V15.1613V15.1673V15.1732V15.179V15.1849V15.1908V15.1964V15.2022V15.2079V15.2136V15.2192V15.2248V15.2304V15.2359V15.2413V15.2468V15.2522V15.2575V15.2628V15.2681V15.2734V15.2786V15.2837V15.2888V15.294V15.299V15.304V15.309V15.3139V15.3188V15.3237V15.3284V15.3332V15.338V15.3427V15.3473V15.3519V15.3565V15.361V15.3655V15.37V15.3744V15.3788V15.3831V15.3873V15.3916V15.3957V15.3999V15.4041V15.4081V15.4121V15.4161V15.42V15.424V15.4278V15.4316V15.4354V15.4391V15.4428V15.4464V15.45V15.4536V15.4571V15.4605V15.4639V15.4673V15.4706V15.4739V15.4771V15.4803V15.4835V15.4866V15.4896V15.4926V15.4956V15.4985V15.5013V15.5042V15.5069V15.5097V15.5123V15.515V15.5176V15.52V15.5226V15.525V15.5274V15.5297V15.532V15.5342V15.5364V15.5386V15.5407V15.5428V15.5448V15.5467V15.5486V15.5505V15.5523V15.554V15.5558V15.5574V15.559V15.5605V15.562V15.5635V15.5649V15.5662V15.5675V15.5688V15.57V15.5712V15.5723V15.5733V15.5743V15.5752V15.577V15.5784V15.5797V15.5808V15.582V15.5829C11.9163 16.0892 11.5059 16.4997 10.9997 16.4997C10.4934 16.4997 10.083 16.0893 10.083 15.583V15.582V15.5808V15.5797V15.5784V15.577V15.5752V15.5743V15.5733V15.5723V15.5712V15.57V15.5688V15.5675V15.5662V15.5649V15.5635V15.562V15.5605V15.559V15.5574V15.5558V15.554V15.5523V15.5505V15.5486V15.5467V15.5448V15.5428V15.5407V15.5386V15.5364V15.5342V15.532V15.5297V15.5274V15.525V15.5226V15.52V15.5176V15.515V15.5123V15.5097V15.5069V15.5042V15.5013V15.4985V15.4956V15.4926V15.4896V15.4866V15.4835V15.4803V15.4771V15.4739V15.4706V15.4673V15.4639V15.4605V15.4571V15.4536V15.45V15.4464V15.4428V15.4391V15.4354V15.4316V15.4278V15.424V15.42V15.4161V15.4121V15.4081V15.4041V15.3999V15.3957V15.3916V15.3873V15.3831V15.3788V15.3744V15.37V15.3655V15.361V15.3565V15.3519V15.3473V15.3427V15.338V15.3332V15.3284V15.3237V15.3188V15.3139V15.309V15.304V15.299V15.294V15.2888V15.2837V15.2786V15.2734V15.2681V15.2628V15.2575V15.2522V15.2468V15.2413V15.2359V15.2304V15.2248V15.2192V15.2136V15.2079V15.2022V15.1964V15.1908V15.1849V15.179V15.1732V15.1673V15.1613V15.1554V15.1493V15.1433V15.1372V15.1311V15.1249V15.1187V15.1125V15.1062V15.0999V15.0936V15.0872V15.0809V15.0743V15.0679V15.0614V15.0549V15.0483V15.0417V15.0351V15.0284V15.0217V15.0149V15.0083V15.0015V14.9946V14.9877V14.9808V14.974V14.967V14.9599V14.953V14.9459V14.9389V14.9317V14.9246V14.9174V14.9103V14.903V14.8958V14.8884V14.8811V14.8738V14.8664V14.859V14.8516V14.8441V14.8367V14.8291V14.8215V14.8139V14.8063V14.7987V14.7911V14.7834V14.7757V14.7679V14.7601V14.7523V14.7445V14.7366V14.7288V14.7209V14.7129V14.7049V14.697V14.689V14.6809V14.6728V14.6648V14.6567V14.6486V14.6404V14.6321V14.624V14.6157V14.6075V14.5991V14.5909V14.5826V14.5741V14.5658V14.5573V14.5489V14.5405V14.532V14.5235V14.515V14.5065V14.4979V14.4892V14.4806V14.472V14.4634V14.4547V14.446V14.4373V14.4285V14.4198V14.411V14.4022V14.3933V14.3845V14.3756V14.3667V14.3578V14.3488V14.3399V14.3309V14.3219V14.3129V14.3039V14.2948V14.2857V14.2767V14.2676V14.2584V14.2493V14.2401V14.2309V14.2218V14.2125V14.2033V14.1941V14.1848V14.1755V14.1662V14.1569V14.1475V14.1382V14.1288V14.1194V14.11V14.1006V14.0911V14.0817V14.0722V14.0627V14.0532V14.0437V14.0342V14.0246V14.015V14.0055V13.9959V13.9863V13.9766V13.967V13.9574V13.9478V13.938V13.9283V13.9186V13.9089V13.8992V13.8895V13.8797V13.8699V13.8601V13.8503V13.8405V13.8307V13.8209V13.8111V13.8012V13.7914V13.7815V13.7716V13.7617V13.7518V13.7419V13.7319V13.722V13.712V13.7021V13.6921V13.6821V13.6721V13.6621V13.6521V13.6421V13.6321V13.622V13.612V13.6019V13.5918V13.5817V13.5717V13.5616V13.5515V13.5414V13.5312V13.5211V13.511V13.5009V13.4907V13.4805V13.4704V13.4603V13.4501V13.4398V13.4297V13.4195V13.4093V13.3991V13.3889V13.3787V13.3684V13.3583V13.348V13.3377V13.3275V13.3173V13.307V13.2967V13.2865V13.2762V13.2659V13.2557V13.2454V13.2351V13.2249V13.2146V13.2043V13.194V13.1837V13.1735V13.1631V13.1528V13.1425V13.1322V13.1218V13.1116V13.1012V13.091V13.0806V13.0703V13.06V13.0497V13.0393V13.0291V13.0187V13.0084V12.9981V12.9877V12.9775V12.9671V12.9568V12.9465V12.9361V12.9259V12.9155V12.9052V12.8949V12.8845V12.8743V12.864V12.8536V12.8434V12.833V12.8227V12.8124V12.8021V12.7918V12.7815V12.7712V12.761V12.7507V12.7404V12.7302V12.7198V12.7095V12.6993V12.689V12.6788V12.6686V12.6583V12.648V12.6378V12.6276V12.6173V12.6071V12.5969V12.5867V12.5765V12.5663V12.5561V12.5459V12.5357V12.5256V12.5154V12.5052V12.495V12.4849V12.4748V12.4646V12.4545V12.4444V12.4343V12.4242V12.4141V12.404V12.3939V12.3838V12.3738V12.3638V12.3537V12.3437V12.3336V12.3236V12.3136V12.3036V12.2936V12.2836V12.2737V12.2638V12.2538V12.2439V12.2339V12.224V12.2141V12.2042V12.1944V12.1845V12.1746V12.1648V12.1549V12.1451V12.1352V12.1255V12.1157V12.1059V12.0962V12.0864V12.0767V12.0669V12.0572V12.0476V12.0379V12.0282V12.0185V12.0089V11.9993V11.9897V11.98V11.9705V11.961V11.9514V11.9418V11.9323V11.9228V11.9133V11.9039V11.8944V11.885V11.8755V11.8661V11.8567V11.8473V11.838V11.8286V11.8193V11.81V11.8007V11.7914V11.7821V11.7729V11.7637V11.7545V11.7453V11.7361V11.727V11.7178V11.7087V11.6996V11.6906V11.6815V11.6724V11.6634V11.6544V11.6509V11.6472V11.6436V11.64V11.6364V11.6327V11.6291V11.6254V11.6217V11.6181V11.6144V11.6107V11.6071V11.6034V11.5996V11.596V11.5922V11.5884V11.5848V11.581V11.5773V11.5735V11.5697V11.566V11.5622V11.5585V11.5547V11.5509V11.5471V11.5433V11.5395V11.5356V11.5318V11.528V11.5242V11.5203V11.5165V11.5126V11.5088V11.5049V11.5011V11.4971V11.4933V11.4894V11.4855V11.4817V11.4777V11.4739V11.4699V11.466V11.4621V11.4582V11.4542V11.4503V11.4464V11.4424V11.4385V11.4345V11.4306V11.4266V11.4226V11.4187V11.4147V11.4107V11.4068V11.4027V11.3988V11.3948V11.3907V11.3868V11.3827V11.3787V11.3748V11.3707V11.3667V11.3627V11.3586V11.3546V11.3506V11.3465V11.3425V11.3385V11.3344V11.3303V11.3263V11.3222V11.3182V11.3141V11.3101V11.306V11.3019V11.2979V11.2937V11.2897V11.2856V11.2815V11.2774V11.2734V11.2693V11.2651V11.2611V11.257V11.2529V11.2488V11.2447V11.2406V11.2364V11.2324V11.2283V11.2242V11.22V11.2159V11.2118V11.2078V11.2036V11.1995V11.1954V11.1913V11.1871V11.183V11.1789V11.1748V11.1706V11.1665V11.1624V11.1583V11.1541V11.15V11.1459V11.1418V11.1376V11.1335V11.1294V11.1253V11.1211V11.117V11.1129V11.1088V11.1046V11.1005V11.0964V11.0922V11.088V11.0839V11.0798V11.0757V11.0715V11.0674V11.0633V11.0592V11.055V11.051V11.0469V11.0428V11.0386V11.0345V11.0304V11.0263V11.0221V11.018V11.0139V11.0098V11.0057V11.0016V10.9975V10.9934V10.9893V10.9852V10.9811V10.977V10.9729V10.9688V10.9647V10.9606V10.9566V10.9525V10.9484V10.9443V10.9403V10.9361V10.9321V10.9281V10.924V10.9199V10.9159V10.9118V10.9077V10.9037V10.8997V10.8956V10.8916V10.8876V10.8835V10.8795V10.8755V10.8714V10.8674V10.8634V10.8594V10.8554V10.8514V10.8473V10.8434V10.8393V10.8354V10.8314V10.8274V10.8234V10.8195V10.8155V10.8116V10.8075V10.8036V10.7997V10.7957V10.7918V10.7878V10.7839V10.7799V10.7761V10.7722V10.7682V10.7644V10.7604V10.7565V10.7526V10.7488V10.7448V10.741V10.7371V10.7333V10.7294V10.7255V10.7216V10.7179V10.714V10.7102V10.7063V10.7026V10.6987V10.6949V10.6911V10.6874V10.6835V10.6798V10.676V10.6722V10.6685V10.6647V10.661V10.6572V10.6534V10.6498V10.646V10.6423V10.6386V10.6349V10.6312V10.6275V10.6238V10.6202V10.6165V10.6128V10.6092V10.6055V10.6019V10.5983V10.5947V10.591V10.5874V10.5839V10.5802V10.5766V10.5731V10.5696V10.566V10.5624V10.5588V10.5554V10.5518V10.5483V10.5448V10.5413V10.5379V10.5344V10.5309V10.5274V10.5239V10.5205V10.517V10.5137V10.5103V10.5068V10.5034V10.5V10.4966V10.4933V10.4899V10.4865V10.4832V10.4798V10.4765V10.4732V10.4699V10.4666V10.4633V10.46V10.4568V10.4535V10.4503V10.447V10.4438V10.4406V10.4374V10.4342V10.4311V10.4279V10.4247V10.4215V10.4184V10.4153V10.4122V10.4091V10.4059V10.4028V10.3998V10.3967V10.3937V10.3906V10.3876V10.3846V10.3816V10.3785V10.3756V10.3726V10.3696V10.3667V10.3638V10.3608V10.3579V10.355V10.3521V10.3492V10.3464V10.3435V10.3407V10.3378V10.335V10.3322V10.3294V10.3267V10.3239V10.3212V10.3184V10.3157V10.3129V10.3102V10.3075V10.3048V10.3022V10.2995V10.2969V10.2943V10.2916V10.2891V10.2864V10.2838V10.2813V10.2788V10.2762V10.2738V10.2712V10.2687V10.2662V10.2638V10.2613V10.2589V10.2564V10.2541V10.2517V10.2493V10.2469V10.2446V10.2422V10.2399V10.2376V10.2354V10.2331V10.2308V10.2286V10.2263V10.2241V10.2219V10.2197V10.2175V10.2154V10.2132V10.2111V10.209V10.2068V10.2048V10.2027V10.2007V10.1986V10.1966V10.1946V10.1926V10.1906V10.1887V10.1868V10.1848V10.1829V10.181V10.1792V10.1772V10.1754V10.1736V10.1718V10.17V10.1683V10.1664V10.1647V10.163V10.1613V10.1595V10.1579V10.1562V10.1546V10.1529V10.1514V10.1497V10.1482V10.1466V10.1451V10.1436V10.142V10.1406V10.1391V10.1376V10.1362V10.1348V10.1334V10.132V10.1307V10.1293V10.1279V10.1266V10.1254V10.1241V10.1228V10.1216V10.1204V10.1191V10.118V10.1168V10.1156V10.1145V10.1134V10.1123V10.1112V10.1102V10.1092V10.1082V10.1072V10.1062V10.1053V10.1043V10.1034V10.1016V10.1V10.0983V10.0968V10.0953V10.0939V10.0926V10.0913V10.0902V10.0891V10.0878V10.0869V10.0858V10.0848V10.0837C10.083 9.57747 10.4934 9.16634 10.9997 9.16634Z" fill="black"/>
</svg>
