<svg width="22" height="22" viewBox="0 0 22 22" fill="none" xmlns="http://www.w3.org/2000/svg">
<path d="M4.56934 3.07324C5.71774 2.03241 7.50428 2.226 8.47656 3.41016L8.47949 3.40918L8.55469 3.50879L9.70996 5.05273L9.78516 5.15332L9.78027 5.15625C10.4751 6.17654 10.4107 7.54057 9.57324 8.45605L9.57812 8.46094L9.48926 8.54883L9.2959 8.74023C9.29439 8.74794 9.29221 8.75762 9.29102 8.76953C9.28748 8.80482 9.28656 8.86032 9.29883 8.93945C9.35084 9.27483 9.64129 10.0441 10.9424 11.3379C12.2432 12.6313 13.0183 12.9224 13.3594 12.9746C13.4683 12.9913 13.5344 12.982 13.5664 12.9756L13.915 12.6299L14.0039 12.541L14.0078 12.5449C14.82 11.8109 15.9968 11.6682 16.9785 12.1455L16.9814 12.1416L17.0918 12.2012L18.7334 13.0938L18.8428 13.1533L18.9531 13.2129L18.9502 13.2158C20.3927 14.0841 20.7655 16.0738 19.6074 17.3359L19.6104 17.3389L19.5215 17.4277L18.3066 18.6328L18.3076 18.6338L18.2188 18.7217L18.1309 18.8105L18.127 18.8066C17.7385 19.1661 17.2362 19.4627 16.6309 19.5498L16.6318 19.5576L16.5068 19.5684L16.3828 19.5801L16.3818 19.5771C14.6444 19.7108 10.8724 19.4268 6.90918 15.5371L6.9082 15.5391L6.73145 15.3623V15.3613C3.08523 11.697 2.30237 8.48714 2.17969 6.81152L2.17676 6.8125L2.16992 6.68848L2.16309 6.56348L2.16699 6.5625C2.16223 5.80156 2.50998 5.15591 2.9541 4.68066L2.95117 4.67773L3.04004 4.58984L3.04688 4.58301L4.38965 3.24707L4.56738 3.07129L4.56934 3.07324ZM7.25391 4.48242C6.8328 3.92011 6.05492 3.88307 5.62402 4.31152L4.27344 5.65332L4.18555 5.74219C3.90078 6.02535 3.7766 6.32383 3.79199 6.5957C3.86122 7.81372 4.40338 10.6101 7.64355 13.9717L7.96582 14.2979L8.31055 14.6318C11.8679 17.9756 15.0979 18.0684 16.3564 17.9512C16.5916 17.9293 16.8359 17.8054 17.0732 17.5693L17.0957 17.5469L18.3145 16.3369L18.376 16.2754C18.8429 15.8111 18.7464 14.9507 18.0664 14.5811L16.3154 13.6289C15.8785 13.3916 15.3727 13.4728 15.0615 13.7822L14.6436 14.1973H14.6416L14.6426 14.1982L14.6387 14.2021L14.6357 14.2031L14.6367 14.2041L14.6309 14.21L14.5547 14.2852L14.5479 14.2783C14.5262 14.2952 14.503 14.3146 14.4756 14.333C14.3948 14.3872 14.2887 14.4451 14.1572 14.4941C13.8885 14.5942 13.5395 14.6463 13.1133 14.5811C12.2985 14.456 11.2505 13.9134 9.88574 12.5771V12.5781L9.70801 12.4023L9.70898 12.4004C8.36642 11.0445 7.81958 10.0021 7.69336 9.18848C7.62728 8.76229 7.67887 8.41268 7.78027 8.14355C7.82984 8.01207 7.88875 7.90678 7.94336 7.82617C7.96218 7.79839 7.98084 7.77381 7.99805 7.75195L7.99219 7.74609L8.08301 7.65527V7.6543L8.28613 7.4541L8.34375 7.39648C8.66867 7.07319 8.73572 6.54472 8.46777 6.1123L8.40918 6.02734L7.32812 4.58203L7.25391 4.48242Z" fill="black" stroke="black" stroke-width="0.25"/>
</svg>
