<svg width="18" height="18" viewBox="0 0 18 18" fill="none" xmlns="http://www.w3.org/2000/svg">
<g clip-path="url(#clip0_244_5219)">
<path d="M6.58383 5.73535L7.30467 6.88496L8.62078 7.21532L7.75017 8.25616L7.8427 9.60992L6.58383 9.10357L5.32488 9.60992L5.41741 8.25616L4.54688 7.21532L5.86298 6.88496L6.58383 5.73535Z" fill="black"/>
<path d="M5.32509 10.1394C5.21491 10.1394 5.10572 10.1051 5.01386 10.0383C4.86641 9.93116 4.78443 9.75573 4.79684 9.5739L4.87488 8.43255L4.14089 7.55512C4.024 7.41531 3.98719 7.22518 4.04347 7.05186C4.09979 6.87854 4.2413 6.74636 4.4181 6.70199L5.5277 6.42352L6.13541 5.45426C6.23223 5.29982 6.40172 5.20605 6.58397 5.20605C6.76622 5.20605 6.93571 5.29982 7.03253 5.45426L7.64024 6.42352L8.74977 6.70199C8.92653 6.74636 9.06804 6.87854 9.12439 7.05186C9.18068 7.22518 9.14387 7.41534 9.02698 7.55512L8.29298 8.43263L8.37103 9.57397C8.38348 9.75584 8.30153 9.93127 8.15401 10.0384C8.00653 10.1455 7.81433 10.1693 7.6453 10.1013L6.58393 9.67438L5.52253 10.1013C5.45883 10.1268 5.39178 10.1394 5.32509 10.1394ZM5.49476 7.52331L5.82368 7.9165C5.91129 8.02133 5.95502 8.15595 5.94578 8.29228L5.91083 8.80373L6.38646 8.61241C6.51327 8.56144 6.65477 8.56144 6.78155 8.61241L7.25711 8.8037L7.22216 8.29228C7.21284 8.15595 7.25658 8.02133 7.34426 7.9165L7.67318 7.52331L7.17596 7.39854C7.04346 7.36528 6.92889 7.28207 6.85629 7.1663L6.58397 6.73198L6.31165 7.1663C6.23905 7.28207 6.12451 7.36525 5.99197 7.39854L5.49476 7.52331Z" fill="black"/>
<path d="M13.4523 7.27661H10.4347C10.1424 7.27661 9.90527 7.03959 9.90527 6.74719C9.90527 6.4548 10.1423 6.21777 10.4347 6.21777H13.4523C13.7447 6.21777 13.9817 6.4548 13.9817 6.74719C13.9817 7.03959 13.7447 7.27661 13.4523 7.27661Z" fill="black"/>
<path d="M12.3928 9.1272H10.4347C10.1424 9.1272 9.90527 8.89017 9.90527 8.59778C9.90527 8.30538 10.1423 8.06836 10.4347 8.06836H12.3928C12.6851 8.06836 12.9222 8.30538 12.9222 8.59778C12.9222 8.89017 12.6851 9.1272 12.3928 9.1272Z" fill="black"/>
<path d="M6.58383 11.457L7.30467 12.6066L8.62078 12.9369L7.75017 13.9778L7.8427 15.3316L6.58383 14.8252L5.32488 15.3316L5.41741 13.9778L4.54688 12.9369L5.86298 12.6066L6.58383 11.457Z" fill="black"/>
<path d="M7.84284 15.8612C7.77615 15.8612 7.70911 15.8486 7.64537 15.823L6.584 15.3961L5.5226 15.823C5.35357 15.891 5.16134 15.8672 5.01389 15.7601C4.86644 15.6529 4.78443 15.4775 4.79687 15.2957L4.87492 14.1543L4.14089 13.2768C4.024 13.137 3.98719 12.9469 4.04347 12.7735C4.09979 12.6002 4.2413 12.468 4.4181 12.4237L5.5277 12.1452L6.13541 11.1759C6.23223 11.0215 6.40172 10.9277 6.58397 10.9277C6.76622 10.9277 6.93571 11.0215 7.03253 11.1759L7.64024 12.1452L8.74977 12.4237C8.92653 12.468 9.06804 12.6002 9.12439 12.7735C9.18068 12.9469 9.14387 13.137 9.02698 13.2768L8.29298 14.1543L8.37103 15.2957C8.38348 15.4775 8.30153 15.6529 8.15401 15.7601C8.06218 15.8268 7.95302 15.8612 7.84284 15.8612ZM5.49476 13.2451L5.82368 13.6383C5.91129 13.7431 5.95502 13.8777 5.94578 14.0141L5.91083 14.5255L6.38646 14.3342C6.51327 14.2832 6.65477 14.2832 6.78155 14.3342L7.25711 14.5255L7.22216 14.0141C7.21284 13.8777 7.25658 13.7431 7.34426 13.6383L7.67318 13.2451L7.17596 13.1203C7.04346 13.0871 6.92889 13.0039 6.85629 12.8881L6.58397 12.4538L6.31165 12.8881C6.23905 13.0039 6.12451 13.087 5.99197 13.1203L5.49476 13.2451Z" fill="black"/>
<path d="M13.4523 12.9983H10.4347C10.1424 12.9983 9.90527 12.7613 9.90527 12.4689C9.90527 12.1765 10.1423 11.9395 10.4347 11.9395H13.4523C13.7447 11.9395 13.9817 12.1765 13.9817 12.4689C13.9817 12.7613 13.7447 12.9983 13.4523 12.9983Z" fill="black"/>
<path d="M12.3928 14.8489H10.4347C10.1424 14.8489 9.90527 14.6119 9.90527 14.3195C9.90527 14.0271 10.1423 13.79 10.4347 13.79H12.3928C12.6851 13.79 12.9222 14.0271 12.9222 14.3195C12.9222 14.6119 12.6851 14.8489 12.3928 14.8489Z" fill="black"/>
<path d="M6.08773 2.0127H2.38184V3.70519H6.08773V2.0127Z" fill="black"/>
<path d="M15.618 2.0127H11.9121V3.70519H15.618V2.0127Z" fill="black"/>
<path d="M11.3831 3.70589C11.3831 3.99829 11.6202 4.23531 11.9125 4.23531H15.6186C15.9109 4.23531 16.148 3.99829 16.148 3.70589V2.0134C16.148 1.721 15.9109 1.48398 15.6186 1.48398H12.4419V0.529418C12.4419 0.237023 12.2049 0 11.9125 0H6.08896C5.79664 0 5.55955 0.237023 5.55955 0.529418V1.48402H2.38293C2.09061 1.48402 1.85352 1.72104 1.85352 2.01343V3.70593V17.4706C1.85352 17.763 2.09057 18 2.38293 18H15.6186C15.9109 18 16.148 17.763 16.148 17.4706V6.74729C16.148 6.4549 15.9109 6.21788 15.6186 6.21788C15.3262 6.21788 15.0891 6.4549 15.0891 6.74729V16.9412H2.91235V4.23531H6.08896H9.81444C10.1068 4.23531 10.3439 3.99829 10.3439 3.70589C10.3439 3.4135 10.1068 3.17647 9.81444 3.17647H6.61838V2.0134V1.05884H11.3831V2.0134V3.70589H11.3831ZM2.91235 2.54282H5.55958V3.17647H2.91235V2.54282ZM15.0891 3.17647H12.4419V2.54282H15.0891V3.17647Z" fill="black"/>
</g>
<defs>
<clipPath id="clip0_244_5219">
<rect width="18" height="18" fill="white"/>
</clipPath>
</defs>
</svg>
