<svg width="22" height="22" viewBox="0 0 22 22" fill="none" xmlns="http://www.w3.org/2000/svg">
<path d="M17.9232 2.74759C17.6922 2.75833 17.4747 2.82547 17.2813 2.90066H17.2787C17.0826 2.97855 16.1507 3.37064 14.7354 3.96414C13.3202 4.56033 11.4832 5.33377 9.65976 6.10184C6.01815 7.63528 2.43832 9.14456 2.43832 9.14456L2.48129 9.12845C2.48129 9.12845 2.23422 9.20901 1.97641 9.38626C1.84481 9.4722 1.69979 9.59036 1.57357 9.77566C1.44735 9.96097 1.3453 10.2456 1.3829 10.5384C1.44467 11.0352 1.76693 11.3333 1.99789 11.4971C2.23153 11.6636 2.45443 11.7415 2.45443 11.7415H2.4598L5.81674 12.8721C5.96713 13.3555 6.83993 16.2237 7.0494 16.8843C7.17294 17.2791 7.29379 17.5262 7.44418 17.7141C7.51669 17.8108 7.60263 17.8914 7.70468 17.9558C7.74496 17.98 7.78793 17.9988 7.8309 18.0149C7.84433 18.023 7.85775 18.0257 7.87387 18.0284L7.83895 18.0203C7.8497 18.023 7.85775 18.031 7.86581 18.0337C7.89267 18.0418 7.91146 18.0445 7.94638 18.0498C8.47811 18.211 8.90512 17.8806 8.90512 17.8806L8.92929 17.8618L10.9112 16.0572L14.2332 18.6057L14.3084 18.638C15.0013 18.9414 15.7022 18.7722 16.0728 18.4742C16.4461 18.1734 16.5912 17.7893 16.5912 17.7893L16.6153 17.7276L19.1827 4.57645C19.2552 4.2515 19.274 3.94803 19.1934 3.65262C19.1129 3.35721 18.9061 3.0806 18.6563 2.93289C18.4039 2.7825 18.1541 2.73685 17.9232 2.74759ZM17.8534 4.1575C17.8507 4.20047 17.8587 4.1951 17.8399 4.27835V4.28641L15.2967 17.3006C15.286 17.3194 15.2672 17.3596 15.2162 17.3999C15.1624 17.4429 15.1195 17.4698 14.8966 17.3811L10.8333 14.2659L8.37875 16.503L8.89437 13.2105C8.89437 13.2105 15.2591 7.27811 15.533 7.02298C15.807 6.76785 15.7157 6.71414 15.7157 6.71414C15.7345 6.40262 15.3021 6.62283 15.3021 6.62283L6.93124 11.8086L6.92855 11.7952L2.91635 10.4444V10.4417C2.91366 10.4417 2.90829 10.439 2.90561 10.439C2.90829 10.439 2.92709 10.4309 2.92709 10.4309L2.94857 10.4202L2.97006 10.4121C2.97006 10.4121 6.55258 8.90286 10.1942 7.36941C12.0177 6.60135 13.8546 5.82791 15.2672 5.23172C16.6798 4.63821 17.7245 4.20316 17.7835 4.17899C17.8399 4.1575 17.8131 4.1575 17.8534 4.1575Z" fill="black"/>
</svg>
